<svg width="17" height="20" viewBox="0 0 17 20" fill="none" xmlns="http://www.w3.org/2000/svg">
<path fill-rule="evenodd" clip-rule="evenodd" d="M14.1634 10.5981C14.1634 7.93379 16.4212 6.70715 16.4212 6.70715C16.4212 6.70715 14.9414 4.46484 12.627 4.46484C10.91 4.46484 9.99924 5.47069 8.84162 5.47069C7.46624 5.47069 6.75467 4.46484 5.04657 4.46484C3.1021 4.46484 0 6.21894 0 10.5981C0 14.8144 3.06405 19.999 5.43595 19.999C6.67857 19.999 7.22905 19.1846 8.86024 19.1846C10.7391 19.1846 10.8339 19.999 12.2473 19.999C14.7609 19.999 17 14.6803 17 14.6803C17 14.6803 14.1634 13.7603 14.1634 10.5981ZM12.232 0C10.4681 0.143926 7.96339 1.98389 8.30501 4.71521C10.6292 4.80108 12.5736 2.14662 12.232 0Z" fill="#1B8918"/>
</svg>
