<svg width="18" height="19" viewBox="0 0 18 19" fill="none" xmlns="http://www.w3.org/2000/svg">
<path d="M2.41626 0L10.2979 8.10538L12.6282 5.70964C8.61283 3.46677 3.30235 0.499733 2.41626 0ZM0.140639 0.513096C0.0556306 0.708644 0 0.923203 0 1.16122V18.0375C0 18.232 0.0443795 18.4116 0.109386 18.5795L8.91106 9.53086L0.140639 0.513096ZM14.4253 6.71462L11.6848 9.53086L14.4038 12.3278C16.073 11.3945 17.2283 10.748 17.2283 10.748C17.7274 10.4488 18.0069 9.98821 17.9999 9.4865C17.9929 8.99763 17.7044 8.54663 17.2264 8.27899C17.1614 8.24244 16.0335 7.61236 14.4253 6.71462ZM10.2979 10.9583L2.47486 19C3.822 18.2435 8.79836 15.4602 12.6067 13.3309L10.2979 10.9583Z" fill="#1B8918"/>
</svg>
