<svg width="34" height="36" viewBox="0 0 34 36" fill="none" xmlns="http://www.w3.org/2000/svg">
<path fill-rule="evenodd" clip-rule="evenodd" d="M13.7981 0.471223C14.1854 0.259695 14.5883 0.153931 15.0068 0.153931C15.4254 0.153931 15.8237 0.259695 16.2019 0.471223L27.9647 7.26289C28.3498 7.48622 28.6464 7.7846 28.8545 8.15801C29.0626 8.5314 29.1666 8.92853 29.1666 9.34939V14.8173C28.8712 14.6206 28.5662 14.4488 28.2515 14.3019C27.9369 14.1549 27.6116 14.019 27.2756 13.8942V9.95835L21.0192 13.5993C19.5299 13.9669 18.1816 14.6084 16.9744 15.524C15.7671 16.4396 14.7938 17.5427 14.0545 18.8333V16.5321L2.72437 9.98397V22.6666C2.72437 22.7521 2.74575 22.8323 2.7885 22.9071C2.83122 22.9818 2.89532 23.0459 2.98079 23.0994L13.4615 29.1539C13.6859 29.609 13.9455 30.0432 14.2404 30.4567C14.5352 30.8702 14.86 31.2596 15.2147 31.6249C14.9775 31.7318 14.7292 31.7724 14.4695 31.7467C14.2099 31.7211 13.9701 31.6378 13.75 31.4967L2.03533 24.7371C1.65017 24.5138 1.35355 24.2154 1.1455 23.842C0.937416 23.4686 0.833374 23.0715 0.833374 22.6506V9.34939C0.833374 8.92853 0.937416 8.5314 1.1455 8.15801C1.35355 7.7846 1.65017 7.48622 2.03533 7.26289L13.7981 0.471223ZM14.7436 2.10901L9.89689 4.90693L21.1668 11.3469L26.1795 8.42951L15.2564 2.10901C15.1709 2.06629 15.0855 2.04493 15 2.04493C14.9145 2.04493 14.8291 2.06629 14.7436 2.10901ZM3.79487 8.42951L8.34235 5.80433L19.6186 12.2479L15 14.9359L3.79487 8.42951Z" fill="white"/>
<path fill-rule="evenodd" clip-rule="evenodd" d="M26.5892 29.8256L32.5269 36L34 34.4501L28.198 28.4166C28.6195 27.7711 28.945 27.0841 29.1743 26.3555C29.4036 25.6269 29.5182 24.8543 29.5182 24.0378C29.5182 22.0488 28.8679 20.3785 27.5674 19.0271C26.2669 17.6757 24.6641 17 22.7591 17C20.8541 17 19.2513 17.6762 17.9508 19.0286C16.6503 20.381 16 22.0515 16 24.04C16 26.0285 16.6493 27.6982 17.9479 29.0492C19.2466 30.4002 20.8532 31.0757 22.7678 31.0757C23.553 31.0757 24.2339 30.9799 24.8106 30.7885C25.3874 30.597 25.9802 30.276 26.5892 29.8256ZM26.1309 27.5441C25.2391 28.4775 24.1152 28.9441 22.7591 28.9441C21.403 28.9441 20.2791 28.4775 19.3874 27.5441C18.4956 26.6108 18.0497 25.4421 18.0497 24.0378C18.0497 22.6178 18.4956 21.445 19.3874 20.5196C20.2791 19.5943 21.4001 19.1316 22.7504 19.1316C24.116 19.1316 25.2438 19.5952 26.1336 20.5225C27.0235 21.4498 27.4685 22.6186 27.4685 24.0288C27.4685 25.4391 27.0226 26.6108 26.1309 27.5441Z" fill="white"/>
</svg>
