<svg width="31" height="32" viewBox="0 0 31 32" fill="none" xmlns="http://www.w3.org/2000/svg">
<path fill-rule="evenodd" clip-rule="evenodd" d="M15.0068 0.153931C14.5883 0.153931 14.1854 0.259695 13.7981 0.471223L2.03533 7.26289C1.65017 7.48622 1.35355 7.7846 1.1455 8.15801C0.937416 8.5314 0.833374 8.92853 0.833374 9.34939V22.6506C0.833374 23.0715 0.937416 23.4686 1.1455 23.842C1.35355 24.2154 1.65017 24.5138 2.03533 24.7371L13.75 31.4967C13.9701 31.6378 14.2099 31.7211 14.4695 31.7467C14.7292 31.7724 14.9775 31.7318 15.2147 31.6249C14.86 31.2596 14.5352 30.8702 14.2404 30.4567C13.9455 30.0432 13.6859 29.609 13.4615 29.1539L2.98079 23.0994C2.89532 23.0459 2.83122 22.9818 2.7885 22.9071C2.74575 22.8323 2.72437 22.7521 2.72437 22.6666V9.98397L14.0545 16.5321V18.8333C14.7938 17.5427 15.7671 16.4396 16.9744 15.524C18.1816 14.6084 19.5299 13.9669 21.0192 13.5993L27.2756 9.95835V13.8942C27.6116 14.019 27.9369 14.1549 28.2515 14.3019C28.5662 14.4488 28.8712 14.6206 29.1666 14.8173V9.34939C29.1666 8.92853 29.0626 8.5314 28.8545 8.15801C28.6464 7.7846 28.3498 7.48622 27.9647 7.26289L16.2019 0.471223C15.8237 0.259695 15.4254 0.153931 15.0068 0.153931ZM9.89689 4.90693L14.7436 2.10901C14.8291 2.06629 14.9145 2.04493 15 2.04493C15.0855 2.04493 15.1709 2.06629 15.2564 2.10901L26.1795 8.42951L21.1668 11.3469L9.89689 4.90693ZM8.34235 5.80433L3.79487 8.42951L15 14.9359L19.6186 12.2479L8.34235 5.80433Z" fill="white"/>
<path fill-rule="evenodd" clip-rule="evenodd" d="M18.2849 29.4006C19.6736 30.798 21.3509 31.4967 23.3169 31.4967C25.2829 31.4967 26.9646 30.798 28.3621 29.4006C29.7595 28.0031 30.4582 26.3344 30.4582 24.3942C30.4582 22.4044 29.7595 20.7119 28.3621 19.3169C26.9646 17.9219 25.2899 17.2244 23.3378 17.2244C21.3573 17.2244 19.6729 17.9219 18.2845 19.3169C16.8961 20.7119 16.2019 22.4044 16.2019 24.3942C16.2019 26.3344 16.8962 28.0031 18.2849 29.4006ZM23.9999 29.5096H22.7371V25.0384H18.266V23.7756H22.7371V19.3045H23.9999V23.7756H28.471V25.0384H23.9999V29.5096Z" fill="white"/>
</svg>
