<svg width="28" height="28" viewBox="0 0 28 28" fill="none" xmlns="http://www.w3.org/2000/svg">
<path fill-rule="evenodd" clip-rule="evenodd" d="M14.0006 2.42854C7.60958 2.42854 2.42859 7.60952 2.42859 14.0006C2.42859 17.651 4.11885 20.9067 6.75943 23.0276C6.77678 22.9855 6.79722 22.944 6.82082 22.9036C7.41219 21.8896 8.4675 21.1109 9.68998 20.59C10.9273 20.0627 12.4175 19.7625 14.0002 19.7625C15.5829 19.7625 17.0731 20.0627 18.3104 20.59C19.5329 21.1109 20.5882 21.8896 21.1796 22.9036C21.2033 22.9442 21.2238 22.9858 21.2412 23.0282C23.8821 20.9072 25.5727 17.6513 25.5727 14.0006C25.5727 7.60952 20.3917 2.42854 14.0006 2.42854ZM19.6155 24.1216C19.5532 24.0605 19.498 23.9902 19.4519 23.9112C19.149 23.3918 18.5075 22.848 17.5263 22.4299C16.5599 22.018 15.3396 21.7625 14.0002 21.7625C12.6608 21.7625 11.4405 22.018 10.4741 22.4299C9.49285 22.848 8.85141 23.3918 8.54845 23.9112C8.50247 23.99 8.44735 24.0603 8.38523 24.1213C10.0482 25.046 11.9629 25.5727 14.0006 25.5727C16.0381 25.5727 17.9526 25.0461 19.6155 24.1216ZM0.428589 14.0006C0.428589 6.50495 6.50501 0.428537 14.0006 0.428537C21.4963 0.428537 27.5727 6.50495 27.5727 14.0006C27.5727 21.4962 21.4963 27.5727 14.0006 27.5727C6.50501 27.5727 0.428589 21.4962 0.428589 14.0006ZM9.19058 13.1426C9.19058 10.4873 11.345 8.33287 14.0003 8.33287C16.6555 8.33287 18.81 10.4873 18.81 13.1426C18.81 15.7978 16.6555 17.9523 14.0003 17.9523C11.345 17.9523 9.19058 15.7978 9.19058 13.1426ZM14.0003 10.3329C12.4496 10.3329 11.1906 11.5919 11.1906 13.1426C11.1906 14.6933 12.4496 15.9523 14.0003 15.9523C15.551 15.9523 16.81 14.6933 16.81 13.1426C16.81 11.5919 15.551 10.3329 14.0003 10.3329Z" fill="#526070"/>
</svg>
